<svg width="24" height="20" viewBox="0 0 24 20" fill="none" xmlns="http://www.w3.org/2000/svg">
<path fill-rule="evenodd" clip-rule="evenodd" d="M23 1C23.5523 1 24 1.44772 24 2V8C24 8.55228 23.5523 9 23 9H17C16.4477 9 16 8.55228 16 8C16 7.44772 16.4477 7 17 7H22V2C22 1.44772 22.4477 1 23 1Z" fill="black"/>
<path fill-rule="evenodd" clip-rule="evenodd" d="M1.57747e-07 12C1.57747e-07 11.4477 0.447715 11 1 11H7C7.55228 11 8 11.4477 8 12C8 12.5523 7.55228 13 7 13H2V18C2 18.5523 1.55228 19 1 19C0.447715 19 1.57747e-07 18.5523 1.57747e-07 18V12Z" fill="black"/>
<path fill-rule="evenodd" clip-rule="evenodd" d="M14.2173 2.31503C12.9192 1.93953 11.547 1.89901 10.229 2.19724C8.91091 2.49547 7.68987 3.12273 6.6798 4.02049C5.66972 4.91825 4.90353 6.05726 4.45272 7.33123C4.26848 7.85188 3.69705 8.12459 3.1764 7.94035C2.65576 7.75611 2.38304 7.18469 2.56728 6.66404C3.1308 5.07158 4.08854 3.64782 5.35114 2.52561C6.61373 1.40341 8.14002 0.619333 9.7876 0.246547C11.4352 -0.126239 13.1503 -0.0755829 14.7731 0.393787C16.3906 0.861665 17.8637 1.7304 19.0559 2.91932L23.6848 7.26888C24.0873 7.64707 24.1069 8.27993 23.7288 8.68241C23.3506 9.08489 22.7177 9.10458 22.3152 8.72639L17.6752 4.36639C17.6676 4.35923 17.6601 4.35196 17.6527 4.34456C16.6974 3.38875 15.5155 2.69053 14.2173 2.31503ZM0.271247 11.3129C0.649439 10.9104 1.2823 10.8907 1.68478 11.2689L6.32478 15.6289C6.33239 15.636 6.3399 15.6433 6.34728 15.6507C7.30262 16.6065 8.4845 17.3047 9.78267 17.6802C11.0808 18.0557 12.453 18.0963 13.771 17.798C15.0891 17.4998 16.3101 16.8725 17.3202 15.9748C18.3303 15.077 19.0965 13.938 19.5473 12.664C19.7315 12.1434 20.3029 11.8707 20.8236 12.0549C21.3442 12.2392 21.617 12.8106 21.4327 13.3312C20.8692 14.9237 19.9115 16.3474 18.6489 17.4697C17.3863 18.5919 15.86 19.3759 14.2124 19.7487C12.5648 20.1215 10.8497 20.0709 9.22695 19.6015C7.6094 19.1336 6.13627 18.2649 4.94411 17.0759L0.315224 12.7264C-0.0872557 12.3482 -0.106945 11.7153 0.271247 11.3129Z" fill="black"/>
</svg>
